<?xml version="1.0" standalone="no"?>
<!DOCTYPE svg PUBLIC "-//W3C//DTD SVG 20010904//EN"
 "http://www.w3.org/TR/2001/REC-SVG-20010904/DTD/svg10.dtd">
<svg version="1.0" xmlns="http://www.w3.org/2000/svg"
 width="512.000000pt" height="512.000000pt" viewBox="0 0 512.000000 512.000000"
 preserveAspectRatio="xMidYMid meet">
<metadata>
Created by potrace 1.11, written by Peter Selinger 2001-2013
</metadata>
<g transform="translate(0.000000,512.000000) scale(0.100000,-0.100000)"
fill="#000000" stroke="none">
<path d="M1298 5110 c-79 -24 -115 -64 -163 -180 -15 -36 -33 -78 -41 -95 -7
-16 -153 -356 -325 -755 -171 -399 -358 -833 -415 -966 -115 -267 -133 -324
-128 -402 3 -66 29 -112 74 -135 33 -16 161 -17 2265 -17 2192 0 2231 1 2262
20 40 24 60 62 67 126 6 46 -11 138 -33 189 -15 35 -114 264 -166 385 -17 41
-93 217 -168 390 -74 173 -199 464 -277 645 -78 182 -149 348 -159 370 -19 42
-59 135 -95 220 -50 120 -70 149 -126 182 l-53 33 -1246 -1 c-685 0 -1258 -4
-1273 -9z"/>
<path d="M2335 2358 c-145 -19 -275 -111 -334 -238 -23 -49 -26 -68 -26 -165
0 -60 3 -134 8 -164 12 -87 60 -217 150 -402 46 -96 92 -194 101 -219 10 -25
22 -54 27 -65 12 -25 58 -209 65 -255 3 -19 9 -60 14 -90 5 -30 11 -80 12
-110 l3 -55 -320 -5 c-311 -5 -321 -6 -360 -28 -48 -28 -84 -76 -92 -126 -3
-20 -8 -37 -12 -37 -3 -1 -100 -3 -216 -4 -215 -3 -241 -7 -297 -46 -55 -39
-71 -90 -73 -227 l-1 -122 1576 0 1576 0 -1 124 c-2 115 -4 127 -29 170 -16
28 -44 55 -72 72 -45 26 -46 26 -267 28 l-221 1 -8 40 c-11 51 -41 95 -87 126
l-36 24 -328 3 -328 3 5 32 c3 18 8 57 11 87 25 246 67 380 218 693 135 279
152 342 152 552 0 92 -4 118 -23 159 -48 105 -140 185 -263 226 -57 20 -86 23
-269 24 -113 0 -227 -2 -255 -6z"/>
</g>
</svg>
